<?xml version="1.0" encoding="iso-8859-1"?>
<!-- Generator: Adobe Illustrator 19.0.0, SVG Export Plug-In . SVG Version: 6.00 Build 0)  -->
<svg version="1.1" id="Capa_1" xmlns="http://www.w3.org/2000/svg" xmlns:xlink="http://www.w3.org/1999/xlink" x="0px" y="0px"
	 viewBox="0 0 342.834 342.834" style="enable-background:new 0 0 342.834 342.834;" xml:space="preserve">
<g>
	<g>
		<g>
			<path style="fill:#231F20;" d="M336.4,6.829H6.8c-3.6,0-6.8,3.2-6.8,6.8v234.8c0,3.6,3.2,6.8,6.8,6.8h150l-58,69.6
				c-2.4,2.8-2,7.2,0.8,9.6c2.8,2.4,7.2,2,9.6-0.8l62.4-74.8l62.4,74.4c1.2,1.6,3.2,2.4,5.2,2.4c1.6,0,3.2-0.4,4.4-1.6
				c2.8-2.4,3.2-6.8,0.8-9.6l-58.4-69.2h150c3.6,0,6.8-3.2,6.8-6.8v-234.8C343.2,10.029,340,6.829,336.4,6.829z M329.6,241.629h-316
				v-22h316V241.629z M329.6,206.029h-316v-185.6h316V206.029z"/>
			<path style="fill:#231F20;" d="M122.8,182.029c1.2,0.8,2.4,0.8,3.6,0.8s2.4-0.4,3.6-0.8l90.8-52.4c2-1.2,3.6-3.6,3.6-6
				c0-2.4-1.2-4.8-3.6-6l-91.2-52.4c-2-1.2-4.8-1.2-6.8,0s-3.2,3.6-3.2,6v104.8C119.6,178.429,120.8,180.829,122.8,182.029z
				 M133.2,83.229l70.4,40.8l-70.4,40.4V83.229z"/>
		</g>
	</g>
</g>
<g>
</g>
<g>
</g>
<g>
</g>
<g>
</g>
<g>
</g>
<g>
</g>
<g>
</g>
<g>
</g>
<g>
</g>
<g>
</g>
<g>
</g>
<g>
</g>
<g>
</g>
<g>
</g>
<g>
</g>
</svg>
